<svg width="227" height="227" viewBox="0 0 227 227" fill="none" xmlns="http://www.w3.org/2000/svg">
<circle cx="113.5" cy="113.5" r="113.5" fill="black"/>
<g clip-path="url(#clip0_1001_2)">
<path d="M124.589 141.098C124.589 153.2 124.589 165.302 124.589 177.405C124.589 181.964 122.567 183.99 118.029 183.996C114.794 184 111.559 184 108.323 183.996C103.906 183.991 101.841 181.92 101.841 177.472C101.838 153.317 101.835 129.161 101.835 105.005C101.835 101.709 102.238 102.093 99.0207 102.088C89.5076 102.074 79.9945 102.072 70.4813 102.082C66.0688 102.082 64.0098 99.9906 64.0054 95.535C64.002 92.1678 64.002 88.7996 64.0054 85.4304C64.0171 81.2558 66.13 79.094 70.235 79.0874C80.1825 79.077 90.133 79.0572 100.078 79.1139C101.478 79.1213 101.877 78.712 101.868 77.3032C101.809 68.5196 101.839 59.7353 101.838 50.9517C101.838 45.9068 103.733 44.0009 108.773 43.9994C112.056 43.9994 115.341 43.9832 118.624 44.0053C122.379 44.0311 124.57 46.2232 124.58 50.0275C124.602 59.1039 124.623 68.1811 124.554 77.2568C124.542 78.7747 125 79.125 126.438 79.1154C136.144 79.0542 145.851 79.08 155.557 79.0859C159.89 79.0859 161.979 81.182 161.99 85.5196C161.999 89.0334 162.009 92.5464 161.986 96.0601C161.962 99.8143 159.746 102.06 156.001 102.069C146.198 102.091 136.395 102.077 126.592 102.079C124.592 102.079 124.589 102.082 124.589 104.054C124.588 116.403 124.588 128.752 124.589 141.098Z" fill="white"/>
</g>
<defs>
<clipPath id="clip0_1001_2">
<rect width="98" height="140" fill="white" transform="translate(64 44)"/>
</clipPath>
</defs>
</svg>
