<svg xmlns="http://www.w3.org/2000/svg" width="227" height="227" viewBox="0 0 227 227" fill="none">
<circle cx="113.663" cy="113.67" r="113.288" fill="black"/>
<path d="M183.917 179.588C182.221 179.557 180.525 179.502 178.83 179.499C172.492 179.488 166.154 179.487 159.817 179.495H158.247V137.183C158.82 137.506 159.253 137.744 159.681 137.991C167.308 142.393 174.936 146.792 182.565 151.191C182.989 151.435 183.465 151.591 183.917 151.788V179.588Z" fill="white"/>
<path d="M73.1413 179.216V177.755C73.1413 159.87 73.1339 141.984 73.119 124.099C73.119 123.085 73.4088 122.442 74.2001 121.789C86.9057 111.305 99.5873 100.793 112.245 90.2528C113.154 89.4947 113.656 89.5587 114.523 90.2815C127.183 100.821 139.862 111.336 152.56 121.826C153.172 122.333 153.628 122.789 153.626 123.723C153.591 141.886 153.582 160.047 153.6 178.206V179.236H127.163V155.829C127.163 150.611 125.064 146.454 120.589 143.746C115.776 140.835 110.778 140.893 105.998 143.83C101.936 146.327 99.7113 150.136 99.6243 154.905C99.4873 162.424 99.5814 169.946 99.5784 177.467C99.5784 178.014 99.5784 178.56 99.5784 179.216H73.1413Z" fill="white"/>
<path d="M62.167 125.067L55.3533 116.796C57.3304 115.166 59.2305 113.599 61.1318 112.033C77.1465 98.8481 93.1653 85.6682 109.188 72.4933C109.894 71.9143 110.208 71.3342 110.188 70.4136C110.132 67.5336 110.168 64.6513 110.168 61.6339H100.467V55.2604H110.118V48.2245H116.549V55.1952H126.265V61.5687H116.572V65.6324C116.572 66.2283 116.67 66.8443 116.556 67.4179C115.925 70.6126 117.471 72.5261 119.883 74.4855C136.835 88.2641 153.663 102.194 170.53 116.077C170.776 116.279 171.006 116.5 171.366 116.822L164.576 125.068L113.371 82.9228C96.3458 96.9358 79.278 110.984 62.167 125.067Z" fill="white"/>
<path d="M68.4752 179.418H42.8246V178.005C42.8246 169.752 42.8417 161.499 42.8017 153.247C42.797 152.298 43.0956 151.788 43.9146 151.318C51.7089 146.85 59.4888 142.356 67.2541 137.838C67.6068 137.633 67.976 137.45 68.4746 137.183L68.4752 179.418Z" fill="white"/>
</svg>