<svg width="227" height="227" viewBox="0 0 227 227" fill="none" xmlns="http://www.w3.org/2000/svg">
<circle cx="113.5" cy="113.5" r="113.5" fill="black"/>
<g clip-path="url(#clip0_1002_10)">
<path d="M113.555 47.0116C122.216 47.0573 129.89 49.8989 136.682 55.2098C140.665 58.3236 143.899 62.0922 146.411 66.4711C148.835 70.6972 150.35 75.2409 151.058 80.0574C151.349 82.0275 151.514 84.0074 151.475 85.9984C151.379 90.8689 150.348 95.5344 148.442 100.022C146.714 104.092 144.304 107.744 141.691 111.286C137.009 117.638 132.368 124.019 127.692 130.374C123.595 135.943 119.484 141.501 115.361 147.05C114.695 147.949 114.01 148.835 113.352 149.741C113.111 150.072 112.951 150.047 112.721 149.734C109.786 145.738 106.847 141.745 103.904 137.755C101.88 135.008 99.852 132.264 97.8194 129.522C92.4819 122.285 87.0467 115.118 81.926 107.724C78.2546 102.42 75.8093 96.59 74.9638 90.1468C74.7431 88.4563 74.5947 86.7525 74.6366 85.0514C74.8513 76.3643 77.4847 68.5051 82.9083 61.6629C87.3734 56.0311 93.0271 51.9984 99.7619 49.4722C103.029 48.2463 106.407 47.5044 109.872 47.1538C111.095 47.0255 112.326 46.9779 113.555 47.0116ZM113.134 106.959C124.732 107.093 134.699 97.6152 134.705 85.5139C134.711 73.3039 125.102 64.0105 113.219 63.9614C101.233 63.9135 91.6265 73.4847 91.5774 85.3772C91.5304 97.4614 101.656 107.16 113.134 106.959Z" fill="white"/>
<path d="M139.852 132.886C139.852 131.613 140.247 130.669 140.783 129.774C143.138 125.835 146.539 123.123 150.708 121.293C152.954 120.307 155.193 119.298 157.398 118.226C161.669 116.149 165.912 114.016 170.173 111.917C171.129 111.446 172.115 111.035 173.071 110.563C173.493 110.355 173.638 110.416 173.73 110.898C174.804 116.517 175.89 122.134 176.986 127.748C178.213 134.061 179.44 140.374 180.668 146.687C181.765 152.337 182.852 157.99 183.966 163.637C184.072 164.17 183.911 164.409 183.441 164.61C176.768 167.454 170.098 170.306 163.431 173.165C157.397 175.744 151.363 178.323 145.33 180.9C144.883 181.092 144.783 181.027 144.734 180.543C144.403 177.224 144.039 173.909 143.686 170.593C143.343 167.382 142.989 164.173 142.655 160.961C142.385 158.368 142.139 155.771 141.876 153.177C141.57 150.159 141.249 147.142 140.948 144.124C140.713 141.776 140.501 139.426 140.273 137.078C140.133 135.613 139.98 134.149 139.852 132.886Z" fill="white"/>
<path d="M84.2233 129.828C84.0705 131.42 83.9116 133.08 83.751 134.739C83.588 136.416 83.4241 138.094 83.2593 139.77C83.0606 141.765 82.8597 143.759 82.6566 145.753C82.4635 147.677 82.2775 149.601 82.0799 151.525C81.896 153.326 81.7052 155.125 81.5077 156.924C81.3482 158.405 81.197 159.887 81.0166 161.366C80.8747 162.529 80.293 163.351 79.1711 163.827C74.1338 165.977 69.1141 168.162 64.0812 170.32C59.3592 172.345 54.6317 174.36 49.8986 176.365C48.083 177.137 46.2669 177.908 44.4502 178.68C44.1389 178.809 43.8212 178.922 43.4983 179.018C43.0805 179.146 42.9282 179.033 43.0265 178.56C43.3024 177.237 43.5336 175.908 43.7897 174.583C45.4397 166.055 47.0907 157.526 48.7425 148.998C49.8418 143.312 50.9373 137.626 52.0288 131.938C52.2672 130.7 52.4918 129.458 52.7374 128.221C52.9394 127.202 53.4851 126.446 54.442 125.98C59.6225 123.457 64.7998 120.928 69.9739 118.393C71.172 117.808 72.3729 117.228 73.572 116.644C74.7497 116.071 75.3275 116.198 76.0907 117.241C78.5891 120.654 81.0828 124.07 83.5716 127.489C84.0628 128.163 84.2206 128.941 84.2233 129.828Z" fill="white"/>
<path d="M133.606 139.905C133.816 140.922 133.855 141.914 133.965 142.896C134.18 144.835 134.375 146.776 134.572 148.717C134.767 150.623 134.952 152.529 135.146 154.435C135.37 156.64 135.597 158.845 135.827 161.049C136.025 162.972 136.224 164.895 136.424 166.818C136.618 168.706 136.812 170.594 137.005 172.482C137.203 174.405 137.401 176.328 137.599 178.251C137.672 178.974 137.743 179.698 137.812 180.422C137.85 180.817 137.721 180.915 137.316 180.776C130.385 178.399 123.48 175.953 116.574 173.508C112.702 172.138 108.827 170.775 104.949 169.42C99.6983 167.574 94.4473 165.73 89.1962 163.885C88.0478 163.481 87.7614 163.079 87.8718 161.846C88.029 160.044 88.2503 158.248 88.4379 156.448C88.6403 154.508 88.8391 152.567 89.0345 150.625C89.2295 148.72 89.4237 146.814 89.6173 144.908C89.8156 142.95 90.0122 140.991 90.2072 139.032C90.2463 138.646 90.285 138.256 90.3175 137.866C90.3346 137.649 90.3407 137.434 90.5996 137.349C90.8849 137.255 90.9759 137.491 91.0962 137.652C92.8438 140.006 94.5886 142.362 96.3306 144.721C98.357 147.465 100.382 150.211 102.405 152.958C104.484 155.774 106.537 158.61 108.658 161.392C109.729 162.797 111.134 163.751 112.987 163.782C114.892 163.813 116.345 162.867 117.43 161.416C121.581 155.868 125.68 150.282 129.81 144.715C130.9 143.246 131.938 141.738 133.118 140.335C133.242 140.191 133.337 140.015 133.606 139.905Z" fill="white"/>
</g>
<defs>
<clipPath id="clip0_1002_10">
<rect width="141" height="134" fill="white" transform="translate(43 47)"/>
</clipPath>
</defs>
</svg>
