<svg width="227" height="227" viewBox="0 0 227 227" fill="none" xmlns="http://www.w3.org/2000/svg">
<circle cx="113.5" cy="113.5" r="113.5" fill="black"/>
<g clip-path="url(#clip0_1002_11)">
<path d="M34 129.202C34.4565 125.835 34.835 122.454 35.3911 119.103C35.9588 115.685 37.2757 114.645 40.7115 114.651C47.9985 114.666 55.2855 114.754 62.5627 114.709C66.0121 114.687 68.6362 115.722 70.1287 119.085C70.4019 119.704 71.5842 120.219 72.3763 120.254C77.5367 120.552 82.7166 120.532 87.8692 120.945C97.9539 121.755 107.249 124.885 115.224 131.267C118.075 133.549 121.019 134.804 124.784 134.619C130.091 134.36 135.419 134.587 140.74 134.595C147.734 134.607 151.097 137.217 152.886 144.037C152.959 144.309 153.07 144.572 153.265 145.141C154.184 144.866 155.066 144.642 155.918 144.341C164.003 141.476 172.078 138.582 180.169 135.729C183.781 134.455 187.248 134.963 190.398 137.03C194.966 140.025 195.276 145.725 190.752 149.883C188.28 152.154 185.215 153.862 182.235 155.494C169.987 162.199 157.653 168.737 145.385 175.421C139.481 178.642 133.094 180.236 126.579 181.505C126.028 181.641 125.485 181.806 124.952 181.998H119.704C118.738 181.733 117.764 181.496 116.81 181.2C104.812 177.49 92.8111 173.77 80.8085 170.04C77.5737 169.031 74.3702 167.898 71.0535 166.794C70.794 167.781 70.6223 168.398 70.4682 169.022C69.2859 173.797 68.1387 174.769 63.2612 174.835C58.7465 174.895 54.23 174.81 49.7134 174.864C47.501 174.892 45.9402 174.068 45.0388 172.003C44.2213 170.143 43.2322 168.36 42.4186 166.498C39.9857 160.924 36.9109 155.592 35.8769 149.484C35.2916 146.06 34.6282 142.652 34 139.238V129.202ZM124.977 156.345C119.15 156.345 113.32 156.345 107.49 156.345C105.524 156.345 104.133 155.118 104.117 153.459C104.102 151.8 105.175 150.989 107.467 150.947C108.052 150.937 108.638 150.947 109.223 150.947C119.643 150.947 130.062 150.98 140.48 150.921C143.034 150.908 145.699 150.686 147.08 148.043C148.959 144.452 146.429 140.689 142.133 140.66C135.064 140.609 127.997 140.634 120.929 140.66C118.783 140.66 117.064 139.92 115.466 138.453C111.716 135.012 107.502 132.305 102.654 130.548C92.975 127.043 83.0288 125.699 72.7626 126.195C70.7706 126.291 70.3453 126.941 70.3589 128.762C70.4311 138.65 70.4487 148.538 70.3433 158.423C70.3219 160.248 70.993 160.918 72.6104 161.436C85.5982 165.596 98.5588 169.842 111.531 174.056C121.005 177.133 130.261 176.553 139.108 171.982C152.152 165.242 165.136 158.391 178.062 151.428C181.041 149.833 183.868 147.908 186.571 145.875C187.392 145.258 188.007 143.733 187.913 142.687C187.774 141.114 186.254 140.895 184.85 141.057C184.203 141.111 183.564 141.228 182.94 141.406C176.892 143.336 170.844 145.268 164.805 147.248C158.962 149.139 153.05 150.892 147.878 154.341C145.383 156.004 142.753 156.446 139.84 156.374C134.888 156.254 129.933 156.345 124.977 156.345Z" fill="white"/>
<path d="M172.127 70.6071C172.535 75.8284 170.453 80.2532 167.767 84.493C159.264 97.9115 148.062 108.656 134.972 117.546C133.242 118.715 131.689 118.847 129.958 117.665C115.972 108.122 104.01 96.704 95.5113 81.8307C88.5072 69.5612 94.128 50.6351 111.281 46.6349C118.202 45.0224 124.743 46.5025 130.547 50.6643C131.884 51.6245 132.731 51.6381 134.108 50.6799C147.268 41.5401 164.286 46.3954 170.447 61.0252C171.087 62.5423 171.444 64.2055 171.727 65.8356C171.999 67.4053 172.004 69.0159 172.127 70.6071Z" fill="white"/>
</g>
<defs>
<clipPath id="clip0_1002_11">
<rect width="160" height="136" fill="white" transform="translate(34 46)"/>
</clipPath>
</defs>
</svg>
