<svg xmlns="http://www.w3.org/2000/svg" width="227" height="227" viewBox="0 0 227 227" fill="none">
<circle cx="113.663" cy="113.67" r="113.288" fill="black"/>
<g clip-path="url(#clip0_548_146)">
<path d="M0 83.2025C0.456535 79.8352 0.835028 76.4543 1.39106 73.1026C1.95881 69.6846 3.27574 68.6447 6.71146 68.6505C13.9985 68.6661 21.2855 68.7537 28.5627 68.7089C32.0121 68.6875 34.6362 69.7217 36.1287 73.085C36.4019 73.7044 37.5842 74.2185 38.3763 74.2536C43.5367 74.5515 48.7166 74.532 53.8692 74.9449C63.9539 75.7551 73.2485 78.8848 81.2243 85.2668C84.0747 87.5493 87.0187 88.8035 90.7842 88.6185C96.0909 88.3595 101.419 88.5874 106.74 88.5952C113.734 88.6068 117.097 91.2165 118.886 98.0368C118.959 98.3095 119.07 98.5724 119.265 99.141C120.184 98.8664 121.066 98.6425 121.918 98.3406C130.003 95.4758 138.078 92.5818 146.169 89.7286C149.781 88.4549 153.248 88.9632 156.398 91.0296C160.966 94.0249 161.276 99.7253 156.752 103.883C154.28 106.154 151.215 107.862 148.235 109.494C135.987 116.199 123.653 122.737 111.385 129.421C105.481 132.642 99.0935 134.236 92.5791 135.505C92.0285 135.641 91.4853 135.806 90.952 135.998H85.7038C84.738 135.733 83.7645 135.496 82.8104 135.2C70.8117 131.49 58.8111 127.77 46.8085 124.04C43.5737 123.031 40.3702 121.898 37.0535 120.794C36.794 121.781 36.6223 122.398 36.4682 123.022C35.2859 127.797 34.1387 128.769 29.2612 128.835C24.7465 128.895 20.23 128.81 15.7134 128.864C13.501 128.892 11.9402 128.068 11.0388 126.003C10.2213 124.143 9.23215 122.36 8.41859 120.498C5.98568 114.924 2.9109 109.592 1.87687 103.484C1.29156 100.06 0.628224 96.6521 0 93.2381V83.2025ZM90.9773 110.345C85.1497 110.345 79.3201 110.345 73.4905 110.345C71.5238 110.345 70.1328 109.118 70.1172 107.459C70.1016 105.8 71.1746 104.989 73.467 104.947C74.0524 104.937 74.6376 104.947 75.223 104.947C85.6433 104.947 96.0616 104.98 106.48 104.921C109.034 104.908 111.699 104.686 113.08 102.043C114.959 98.4516 112.429 94.689 108.133 94.6598C101.064 94.6091 93.9975 94.6345 86.929 94.6598C84.7829 94.6598 83.064 93.9197 81.4662 92.4532C77.7163 89.0119 73.5022 86.3049 68.6539 84.5482C58.975 81.0426 49.0288 79.6988 38.7626 80.1955C36.7706 80.2909 36.3453 80.9414 36.3589 82.7623C36.4311 92.6499 36.4487 102.538 36.3433 112.423C36.3219 114.248 36.993 114.918 38.6104 115.436C51.5982 119.596 64.5588 123.842 77.531 128.056C87.0051 131.133 96.2606 130.553 105.108 125.982C118.152 119.242 131.136 112.391 144.062 105.428C147.041 103.833 149.868 101.908 152.571 99.8753C153.392 99.2579 154.007 97.733 153.913 96.6872C153.774 95.1136 152.254 94.8954 150.85 95.0571C150.203 95.111 149.564 95.2278 148.94 95.4057C142.892 97.3357 136.844 99.2676 130.805 101.248C124.962 103.139 119.05 104.892 113.878 108.341C111.383 110.004 108.753 110.446 105.84 110.374C100.888 110.254 95.9329 110.345 90.9773 110.345Z" fill="white"/>
<path d="M138.127 24.6071C138.535 29.8284 136.453 34.2532 133.767 38.493C125.264 51.9115 114.062 62.656 100.972 71.5465C99.2418 72.715 97.6888 72.8474 95.9583 71.6653C81.9715 62.1224 70.0099 50.704 61.5113 35.8307C54.5072 23.5612 60.128 4.63514 77.2813 0.634908C84.2015 -0.977647 90.7432 0.502464 96.5475 4.66434C97.8839 5.62447 98.7306 5.6381 100.108 4.67991C113.268 -4.45985 130.286 0.395365 136.447 15.0252C137.087 16.5423 137.444 18.2055 137.727 19.8356C137.999 21.4053 138.004 23.0159 138.127 24.6071Z" fill="white"/>
</g>
<defs>
<clipPath id="clip0_548_146">
<rect width="160" height="136" fill="white"/>
</clipPath>
</defs>
</svg>